<?xml version="1.0" standalone="no"?>
<!DOCTYPE svg PUBLIC "-//W3C//DTD SVG 20010904//EN"
 "http://www.w3.org/TR/2001/REC-SVG-20010904/DTD/svg10.dtd">
<svg version="1.0" xmlns="http://www.w3.org/2000/svg"
 width="4096.000000pt" height="4096.000000pt" viewBox="0 0 4096.000000 4096.000000"
 preserveAspectRatio="xMidYMid meet">
<metadata>
Created by potrace 1.14, written by Peter Selinger 2001-2017
</metadata>
<g transform="translate(0.000000,4096.000000) scale(0.100000,-0.100000)"
fill="#000000" stroke="none">
<path d="M4949 37546 c-2 -2 -48 -6 -101 -10 -499 -33 -1022 -200 -1478 -472
-117 -70 -315 -205 -364 -249 -6 -6 -24 -21 -41 -34 -194 -149 -465 -440 -634
-679 -318 -451 -536 -1006 -596 -1522 -3 -30 -8 -60 -10 -67 -2 -7 -8 -74 -12
-150 -9 -169 -10 -27473 -1 -27698 4 -88 9 -169 11 -180 3 -11 8 -51 12 -89 8
-83 10 -92 36 -226 40 -205 100 -407 179 -606 50 -125 160 -354 205 -427 15
-23 52 -84 83 -134 47 -77 202 -296 221 -313 4 -3 31 -34 61 -70 77 -92 220
-240 324 -335 94 -87 325 -262 431 -328 33 -21 67 -42 75 -47 347 -223 896
-417 1317 -466 32 -3 67 -8 78 -10 11 -2 67 -7 125 -11 137 -10 31083 -10
31220 0 58 4 116 9 130 11 14 3 48 7 75 10 56 6 75 10 190 31 679 130 1300
465 1792 967 123 126 181 193 295 343 43 56 57 76 84 115 161 234 306 520 404
795 31 90 87 277 96 325 3 14 9 41 14 60 16 60 51 262 56 325 3 33 8 66 10 74
2 8 8 80 11 160 10 199 10 27566 0 27711 -47 739 -323 1421 -805 1993 -532
631 -1311 1061 -2122 1171 -63 8 -135 19 -160 23 -44 7 -31203 17 -31211 9z"/>
</g>
</svg>
